<?xml version="1.0" encoding="UTF-8"?>
<!DOCTYPE svg PUBLIC "-//W3C//DTD SVG 1.1//EN" "http://www.w3.org/Graphics/SVG/1.1/DTD/svg11.dtd">
<svg xmlns="http://www.w3.org/2000/svg" version="1.1" width="64px" height="64px" style="shape-rendering:geometricPrecision; text-rendering:geometricPrecision; image-rendering:optimizeQuality; fill-rule:evenodd; clip-rule:evenodd" xmlns:xlink="http://www.w3.org/1999/xlink">
<g><path style="opacity:0.948" fill="#3561ff" d="M 58.5,11.5 C 57.8333,11.5 57.1667,11.5 56.5,11.5C 55.2209,10.032 53.5542,9.36534 51.5,9.5C 50.5,9.5 49.5,9.5 48.5,9.5C 37.6745,8.34097 26.6745,8.17431 15.5,9C 13.6243,9.9184 12.6243,11.4184 12.5,13.5C 11.8333,13.5 11.1667,13.5 10.5,13.5C 10.1043,10.9556 10.771,8.7889 12.5,7C 27.1667,6.33333 41.8333,6.33333 56.5,7C 58.0368,8.10963 58.7035,9.60963 58.5,11.5 Z"/></g>
<g><path style="opacity:0.984" fill="#465aff" d="M 48.5,9.5 C 49.5,9.5 50.5,9.5 51.5,9.5C 50.962,11.1172 50.6287,12.7839 50.5,14.5C 52.5,14.5 54.5,14.5 56.5,14.5C 56.5,13.5 56.5,12.5 56.5,11.5C 57.1667,11.5 57.8333,11.5 58.5,11.5C 58.5,13.1667 58.5,14.8333 58.5,16.5C 55.3019,15.9644 52.6353,16.631 50.5,18.5C 49.8333,18.5 49.1667,18.5 48.5,18.5C 48.5,15.5 48.5,12.5 48.5,9.5 Z"/></g>
<g><path style="opacity:1" fill="#b2b8fe" d="M 18.5,18.5 C 26.5277,18.169 34.5277,18.5023 42.5,19.5C 38.5,19.8333 34.5,20.1667 30.5,20.5C 26.107,20.4907 22.107,19.824 18.5,18.5 Z"/></g>
<g><path style="opacity:0.995" fill="#5652ff" d="M 10.5,13.5 C 11.1667,13.5 11.8333,13.5 12.5,13.5C 12.5,17.5 12.5,21.5 12.5,25.5C 11.8333,25.5 11.1667,25.5 10.5,25.5C 10.5,21.5 10.5,17.5 10.5,13.5 Z"/></g>
<g><path style="opacity:1" fill="#b6b7fe" d="M 18.5,23.5 C 26.5277,23.169 34.5277,23.5023 42.5,24.5C 38.5,24.8333 34.5,25.1667 30.5,25.5C 26.107,25.4907 22.107,24.824 18.5,23.5 Z"/></g>
<g><path style="opacity:1" fill="#614efe" d="M 48.5,18.5 C 49.1667,18.5 49.8333,18.5 50.5,18.5C 50.5,21.5 50.5,24.5 50.5,27.5C 49.8333,27.5 49.1667,27.5 48.5,27.5C 48.5,24.5 48.5,21.5 48.5,18.5 Z"/></g>
<g><path style="opacity:1" fill="#b5b7fe" d="M 18.5,28.5 C 26.5277,28.169 34.5277,28.5023 42.5,29.5C 38.5,29.8333 34.5,30.1667 30.5,30.5C 26.107,30.4907 22.107,29.824 18.5,28.5 Z"/></g>
<g><path style="opacity:0.998" fill="#7446fe" d="M 10.5,25.5 C 11.1667,25.5 11.8333,25.5 12.5,25.5C 12.5,28.5 12.5,31.5 12.5,34.5C 11.8333,34.5 11.1667,34.5 10.5,34.5C 10.5,31.5 10.5,28.5 10.5,25.5 Z"/></g>
<g><path style="opacity:1" fill="#7943fe" d="M 48.5,27.5 C 49.1667,27.5 49.8333,27.5 50.5,27.5C 50.5,30.5 50.5,33.5 50.5,36.5C 49.8333,36.5 49.1667,36.5 48.5,36.5C 48.5,33.5 48.5,30.5 48.5,27.5 Z"/></g>
<g><path style="opacity:1" fill="#aab9fe" d="M 20.5,34.5 C 22.4646,34.9483 22.7979,35.9483 21.5,37.5C 20.6143,36.675 20.281,35.675 20.5,34.5 Z"/></g>
<g><path style="opacity:1" fill="#abb9fe" d="M 24.5,34.5 C 26.4646,34.9483 26.7979,35.9483 25.5,37.5C 24.6143,36.675 24.281,35.675 24.5,34.5 Z"/></g>
<g><path style="opacity:1" fill="#aeb8fe" d="M 28.5,34.5 C 30.4646,34.9483 30.7979,35.9483 29.5,37.5C 28.6143,36.675 28.281,35.675 28.5,34.5 Z"/></g>
<g><path style="opacity:0.998" fill="#8e3afe" d="M 10.5,34.5 C 11.1667,34.5 11.8333,34.5 12.5,34.5C 12.5,38.1667 12.5,41.8333 12.5,45.5C 11.8333,45.5 11.1667,45.5 10.5,45.5C 10.5,41.8333 10.5,38.1667 10.5,34.5 Z"/></g>
<g><path style="opacity:1" fill="#9239fe" d="M 48.5,36.5 C 49.1667,36.5 49.8333,36.5 50.5,36.5C 50.5,39.5 50.5,42.5 50.5,45.5C 49.8333,45.5 49.1667,45.5 48.5,45.5C 48.5,42.5 48.5,39.5 48.5,36.5 Z"/></g>
<g><path style="opacity:0.994" fill="#a132fe" d="M 10.5,45.5 C 11.1667,45.5 11.8333,45.5 12.5,45.5C 22.3194,46.494 32.3194,46.8274 42.5,46.5C 42.3253,48.6208 42.6586,50.6208 43.5,52.5C 42.5,52.5 41.5,52.5 40.5,52.5C 40.5,51.1667 40.5,49.8333 40.5,48.5C 29.5,48.5 18.5,48.5 7.5,48.5C 7.5,49.5 7.5,50.5 7.5,51.5C 7.15829,52.3382 6.49162,52.6716 5.5,52.5C 5.5,50.5 5.5,48.5 5.5,46.5C 7.41467,46.7845 9.08134,46.4511 10.5,45.5 Z"/></g>
<g><path style="opacity:0.911" fill="#b32aff" d="M 48.5,45.5 C 49.1667,45.5 49.8333,45.5 50.5,45.5C 50.6646,48.5184 50.498,51.5184 50,54.5C 49.5,55 49,55.5 48.5,56C 34.8333,56.6667 21.1667,56.6667 7.5,56C 6.17723,55.1841 5.51056,54.0174 5.5,52.5C 6.49162,52.6716 7.15829,52.3382 7.5,51.5C 8.30943,52.4687 9.30943,53.3021 10.5,54C 15.5,54.1667 20.5,54.3333 25.5,54.5C 30.8806,54.4942 35.8806,53.8275 40.5,52.5C 41.5,52.5 42.5,52.5 43.5,52.5C 44.7082,53.782 46.0416,53.782 47.5,52.5C 48.3742,50.2534 48.7076,47.9201 48.5,45.5 Z"/></g>
</svg>
